<mxfile host="app.diagrams.net" modified="2024-05-15T11:24:41.585Z" agent="Mozilla/5.0 (Windows NT 10.0; Win64; x64) AppleWebKit/537.36 (KHTML, like Gecko) Chrome/124.0.0.0 Safari/537.36" version="24.0.2" etag="3r58qoyx8ZZKfp6zDnww" type="github">
  <diagram name="Page-1" id="d53nj2y0NTTsmb9CHgmx">
    <mxGraphModel>
      <root>
        <mxCell id="0" />
        <mxCell id="1" parent="0" />
      </root>
    </mxGraphModel>
  </diagram>
</mxfile>
